<?xml version="1.0" standalone="no"?>
<!DOCTYPE svg PUBLIC "-//W3C//DTD SVG 20010904//EN"
 "http://www.w3.org/TR/2001/REC-SVG-20010904/DTD/svg10.dtd">
<svg version="1.0" xmlns="http://www.w3.org/2000/svg"
 width="1000.000000pt" height="1000.000000pt" viewBox="0 0 1000.000000 1000.000000"
 preserveAspectRatio="xMidYMid meet">
<metadata>
Created by potrace 1.11, written by Peter Selinger 2001-2013
</metadata>
<g transform="translate(0.000000,1000.000000) scale(0.100000,-0.100000)"
fill="#000000" stroke="none">
<path d="M8330 9456 c-151 -151 -276 -278 -277 -283 -2 -4 105 -116 237 -248
132 -132 240 -243 240 -248 0 -7 -336 -347 -344 -347 -2 0 -12 23 -21 51 -23
67 -16 156 15 198 20 29 20 32 4 53 -10 13 -33 36 -52 53 l-34 29 -21 -24
c-84 -103 -95 -266 -28 -414 l27 -60 -39 -39 -39 -39 -156 156 -157 156 -64
-64 -65 -65 157 -156 157 -157 -40 -38 -40 -38 -72 47 c-242 158 -526 180
-733 56 -33 -20 -70 -46 -83 -59 l-23 -22 29 -30 c16 -16 43 -42 60 -58 l30
-28 24 21 c54 51 176 91 272 91 99 -1 277 -61 354 -121 l23 -18 -1270 -1270
c-699 -699 -1273 -1271 -1276 -1271 -3 0 -5 574 -5 1275 l0 1275 249 0 c284 0
258 -10 253 101 l-4 69 -216 -1 c-119 0 -232 1 -249 1 l-33 0 0 85 0 85 249 0
249 0 4 58 c1 31 2 69 0 84 l-3 26 -250 -1 -249 -2 0 88 0 87 253 0 252 0 -3
85 -3 84 -197 0 c-108 0 -221 0 -249 0 l-53 1 0 115 c0 85 3 115 13 116 6 0
200 1 430 1 l417 0 0 399 0 399 -25 1 c-14 1 -47 1 -75 1 -27 0 -61 0 -75 -1
l-25 -1 0 -298 0 -299 -330 0 -330 0 0 301 0 301 -97 -1 -98 -1 -5 -300 -5
-300 -327 0 -328 0 0 299 0 298 -22 1 c-25 1 -145 1 -165 0 -10 -1 -13 -88
-13 -400 l0 -399 398 0 c218 0 412 -1 430 -1 l32 -1 0 -115 0 -115 -67 -1
c-38 0 -150 0 -250 0 l-183 0 -1 -49 c0 -28 -1 -65 -2 -82 l-1 -33 252 -3 252
-2 0 -85 c0 -74 -2 -85 -17 -86 -10 0 -122 0 -250 0 l-232 0 -3 -32 c-2 -18
-1 -56 0 -84 l4 -53 249 0 249 0 0 -85 0 -85 -107 -1 c-60 0 -172 0 -250 0
l-141 0 -4 -75 c-2 -41 -1 -79 0 -84 2 -6 100 -10 253 -10 l249 0 0 -1277 0
-1278 -1515 1515 c-833 833 -1511 1518 -1506 1523 17 17 128 43 178 41 49 -2
79 -12 130 -44 21 -14 26 -12 68 30 25 24 45 48 45 52 0 17 -86 69 -139 85
-112 32 -233 18 -347 -40 l-51 -26 -29 30 -28 30 272 271 273 271 -322 322
c-177 178 -324 327 -328 331 -26 37 -37 34 -94 -25 l-56 -58 283 -287 284
-287 -210 -209 c-116 -116 -213 -210 -217 -210 -4 0 -24 18 -46 40 l-39 40
115 113 c62 63 120 121 127 130 11 13 6 23 -40 71 -29 31 -57 56 -63 56 -5 0
-66 -56 -135 -125 l-125 -125 -39 40 c-37 36 -39 41 -24 57 49 58 82 176 76
276 -17 280 -329 436 -615 307 -277 -125 -403 -405 -285 -635 43 -86 167 -175
267 -192 108 -18 249 4 349 54 27 14 30 13 67 -23 22 -21 39 -41 39 -44 0 -4
-59 -66 -131 -138 l-131 -131 60 -61 60 -60 129 130 c70 71 133 130 139 130 6
0 27 -18 47 -39 l36 -39 -220 -221 c-121 -122 -224 -221 -228 -221 -4 0 -132
126 -284 280 -152 154 -280 280 -284 280 -12 0 -118 -108 -112 -114 171 -177
673 -676 679 -676 5 0 133 126 286 279 l277 279 29 -27 29 -27 -29 -60 c-77
-151 -79 -311 -5 -428 45 -70 45 -70 97 -17 l47 47 -28 50 c-23 40 -28 61 -27
114 0 70 15 134 38 165 14 19 101 -67 1525 -1491 831 -831 1511 -1513 1511
-1517 0 -3 -812 -6 -1805 -6 l-1805 0 0 602 0 602 -387 -2 c-214 -1 -394 -2
-400 -2 -10 -1 -13 -28 -13 -100 l0 -99 300 2 300 1 0 -201 0 -201 -277 -1
c-153 0 -288 -1 -300 -1 -22 -1 -23 -4 -23 -99 l0 -99 278 -1 c152 0 287 -1
300 -1 l22 -1 0 -199 0 -199 -300 0 c-165 -1 -304 -3 -308 -6 -6 -3 -9 -161
-3 -186 0 -3 137 -6 304 -6 l302 1 3 -201 2 -202 -272 0 c-150 0 -285 -1 -300
-1 l-28 -1 0 -99 0 -99 283 0 c155 0 290 -1 300 -1 16 -1 17 -17 17 -200 l0
-198 -277 -1 c-153 0 -288 -1 -300 -1 -22 -1 -23 -4 -23 -99 l0 -98 400 -2
400 -1 0 602 0 602 1805 0 c993 0 1805 -3 1805 -8 0 -7 -2746 -2757 -2754
-2757 -5 0 -35 73 -44 110 -13 56 -5 119 23 173 l26 51 -53 53 c-29 29 -55 53
-58 53 -3 0 -17 -18 -32 -39 -94 -132 -95 -314 -3 -478 l24 -44 -57 -58 -57
-58 -145 143 -145 144 -58 -56 c-31 -30 -57 -58 -57 -62 0 -4 63 -70 141 -148
l141 -141 -55 -57 c-30 -31 -59 -56 -63 -56 -5 0 -117 110 -250 245 l-241 244
-349 -350 c-192 -192 -350 -353 -352 -357 -1 -4 29 -38 66 -75 l68 -68 283
283 282 282 176 -176 176 -176 -92 -91 c-50 -50 -95 -91 -100 -91 -5 0 -35 27
-68 60 l-58 61 -67 -66 c-38 -36 -68 -70 -68 -76 0 -6 27 -37 60 -70 l61 -60
-47 -46 -47 -45 -64 66 c-36 36 -68 66 -72 66 -5 0 -39 -30 -76 -67 l-67 -66
213 -213 213 -213 69 70 69 71 -33 35 c-19 20 -47 49 -64 64 l-30 28 46 46 46
47 67 -66 c37 -36 69 -66 73 -66 8 0 133 127 133 136 0 5 -29 38 -65 74 l-65
65 95 95 95 95 170 -170 170 -170 -282 -282 -283 -283 70 -70 70 -70 353 351
c193 192 352 353 352 356 0 3 -106 109 -235 237 -129 128 -235 237 -235 242 0
5 25 34 55 64 l55 55 133 -133 134 -133 60 59 61 60 -134 133 -134 134 58 58
59 58 59 -29 c83 -43 160 -60 251 -58 64 2 90 8 144 34 36 17 74 41 84 52 18
20 18 21 -35 75 l-53 54 -46 -27 c-40 -23 -56 -27 -121 -26 -70 1 -140 20
-154 42 -3 4 616 629 1375 1388 l1379 1379 0 -1468 c0 -1390 -1 -1467 -17
-1468 -10 0 -451 -1 -981 -1 l-962 -1 0 -522 0 -522 -93 -1 c-50 0 -98 -1
-104 -1 -9 -1 -13 -26 -13 -88 l0 -88 102 0 103 0 3 -57 3 -58 -106 0 -105 0
0 -88 0 -88 308 1 307 0 0 85 0 85 -103 3 -102 3 0 58 0 59 95 0 c52 1 99 3
103 6 4 2 7 39 7 82 0 91 2 89 -120 88 l-85 -1 0 433 0 434 220 0 220 0 0 -90
0 -90 -105 0 c-93 0 -105 -2 -106 -17 -4 -54 -4 -140 -1 -149 2 -8 34 -11 95
-10 51 1 98 0 105 -2 8 -3 12 -24 12 -61 l0 -56 -92 1 c-51 0 -100 -1 -108 -3
-12 -3 -15 -22 -15 -89 l0 -84 108 0 107 0 0 -138 0 -138 100 -1 100 0 0 138
0 139 100 0 100 0 1 28 c2 65 -1 135 -7 141 -3 3 -47 6 -97 6 l-92 0 -3 54
c-2 30 1 57 7 60 6 4 51 6 101 5 49 -1 90 2 91 7 1 12 1 100 0 139 l-1 30
-100 0 -100 0 0 90 0 90 560 0 560 0 0 -175 0 -175 -375 0 c-350 0 -375 -1
-376 -17 -1 -10 -2 -233 -3 -496 -1 -417 1 -478 14 -481 8 -2 54 -4 103 -4
l87 1 0 26 c0 14 0 193 0 397 0 292 2 373 12 376 7 2 130 3 273 3 l260 0 3
-163 2 -162 -22 -1 c-13 0 -60 -1 -105 -1 l-81 0 -4 -61 c-2 -34 -2 -74 0 -89
l3 -28 105 0 104 0 0 -58 0 -57 -97 0 c-54 1 -102 0 -108 -2 -5 -2 -9 -20 -8
-41 1 -20 2 -58 2 -84 l1 -48 308 0 307 0 -2 67 c0 38 -2 77 -2 88 -1 19 -8
20 -98 20 l-98 0 -3 58 -3 57 58 1 c32 0 77 0 101 -1 29 -1 42 3 43 12 5 91 2
151 -7 159 -6 4 -44 8 -85 8 -41 -1 -82 -1 -92 0 -16 1 -17 14 -15 163 l3 162
255 1 c140 0 260 -1 266 -3 8 -2 11 -114 11 -387 0 -212 3 -388 7 -392 4 -5
50 -8 101 -8 86 0 94 1 97 20 2 11 3 231 3 490 l0 470 -373 3 -372 2 0 175 0
175 560 0 560 0 0 -90 0 -90 -110 0 -110 0 0 -88 0 -89 108 1 107 1 3 -60 3
-60 -111 0 -110 1 0 -88 0 -88 110 0 110 0 0 -138 0 -138 100 -1 100 0 0 138
0 138 98 3 97 3 0 75 c1 41 -1 80 -2 86 -3 7 -39 10 -99 9 l-95 -1 3 60 3 60
95 0 95 1 1 75 c0 41 -2 81 -4 87 -3 9 -32 13 -98 13 l-94 0 0 90 0 90 220 0
220 0 0 -440 0 -440 -105 0 -105 0 -1 -35 c-1 -19 -1 -46 -1 -60 0 -14 0 -38
1 -53 l1 -28 103 0 102 1 0 -60 0 -59 -102 1 -102 1 -3 -85 c-2 -47 -1 -87 1
-89 2 -2 141 -4 308 -4 235 0 303 3 304 13 5 53 3 135 -4 149 -6 14 -20 16
-92 14 -47 -1 -90 1 -96 4 -6 4 -9 31 -7 61 l3 54 98 0 c81 -1 97 2 98 15 1 8
2 48 2 88 l2 72 -102 0 -103 0 -2 528 -3 527 -960 2 c-528 1 -968 2 -977 2
-17 1 -18 78 -18 1468 l0 1466 1175 -1175 c646 -646 1175 -1178 1175 -1182 0
-4 -62 -70 -137 -145 -76 -75 -144 -144 -151 -154 -12 -14 -7 -22 37 -65 28
-28 58 -55 66 -62 13 -11 39 11 166 139 83 83 154 151 157 151 3 0 34 -28 69
-63 l63 -62 -156 -156 -155 -156 64 -65 65 -66 156 156 157 156 66 -68 66 -67
-151 -152 c-84 -84 -152 -156 -152 -160 0 -4 28 -35 62 -68 l61 -60 156 155
156 156 99 -100 98 -100 -279 -279 -280 -278 319 -318 319 -319 71 71 72 72
-248 247 -247 248 207 207 208 208 207 -207 c114 -114 205 -210 203 -213 -12
-21 -101 -38 -177 -35 -97 4 -169 29 -241 84 l-49 38 -56 -54 -56 -55 48 -42
c93 -81 211 -126 349 -131 83 -3 109 0 177 21 309 98 450 439 306 740 -33 70
-100 165 -116 165 -8 0 -109 -96 -109 -103 0 -3 19 -33 43 -68 60 -90 81 -161
75 -257 -3 -43 -11 -90 -17 -106 l-12 -30 -207 207 -207 207 207 207 206 206
248 -247 247 -248 71 71 71 71 -319 319 -319 319 -277 -279 -276 -278 -99 99
-100 100 154 154 154 155 -65 65 -65 64 -154 -154 -154 -154 -67 67 -67 67
154 154 154 154 -65 66 -66 65 -154 -154 -154 -154 -66 66 -65 65 150 151 c83
83 151 153 151 157 0 7 -116 126 -124 126 -3 0 -73 -68 -156 -152 l-152 -151
-1174 1174 c-646 646 -1174 1176 -1174 1179 0 3 518 5 1150 5 l1150 0 -6 -30
c-16 -74 -101 -168 -168 -186 -22 -6 -46 -13 -53 -14 -15 -5 -17 -147 -2 -156
16 -10 106 13 161 41 97 48 186 164 222 290 l16 55 57 0 58 0 5 -250 5 -250
94 0 c59 0 95 4 98 11 2 6 5 118 6 250 l2 239 54 -1 55 0 21 -65 c60 -185 178
-299 338 -328 26 -5 49 -5 52 -2 2 4 4 41 4 82 0 72 -1 75 -25 77 -82 7 -166
83 -207 189 -12 31 -13 42 -4 45 7 2 127 3 267 3 l255 0 3 -352 2 -352 400 2
400 1 0 97 c0 69 -4 98 -12 101 -7 2 -142 3 -301 3 l-287 -1 2 250 3 250 280
1 280 0 3 98 3 97 -53 1 c-29 0 -158 0 -285 0 l-233 -1 0 250 c0 231 1 250 18
251 9 0 144 1 300 1 l282 1 0 101 0 101 -400 0 -400 0 0 -352 0 -352 -269 0
-269 1 13 38 c22 61 41 93 82 132 39 38 97 68 132 68 18 0 20 7 19 81 l-1 81
-51 -6 c-150 -17 -294 -158 -342 -332 l-17 -65 -56 3 -56 3 -2 185 c-1 102 -2
215 -3 251 l0 65 -97 0 -98 -1 -3 -253 -2 -253 -60 2 c-35 1 -60 7 -61 13 -3
52 -37 140 -78 203 -68 105 -174 177 -279 190 l-49 5 -1 -81 c-1 -77 0 -81 21
-81 84 -1 193 -110 217 -217 l8 -32 -1161 0 -1160 1 1276 1276 c1211 1211
1277 1275 1291 1257 76 -100 126 -261 121 -384 -3 -94 -39 -195 -88 -249 l-21
-22 30 -32 c16 -17 42 -44 59 -60 l30 -30 30 38 c176 220 167 562 -22 828
l-35 49 39 39 40 39 152 -152 152 -152 64 65 65 65 -152 151 -152 152 38 39
39 40 56 -29 c74 -38 131 -52 210 -52 77 0 168 31 212 71 l29 26 -23 25 c-13
14 -35 35 -49 48 l-25 23 -51 -24 c-62 -29 -134 -29 -205 -2 l-49 18 179 179
178 178 241 -241 241 -241 229 231 c126 126 253 255 283 284 l53 55 -68 66
c-38 36 -71 66 -74 66 -3 0 -97 -92 -210 -205 -113 -113 -208 -205 -213 -205
-4 0 -82 75 -173 166 l-166 167 212 212 212 212 -60 59 c-112 111 -71 126
-306 -110 -113 -113 -210 -206 -216 -206 -5 0 -87 77 -181 171 l-171 170 189
189 c103 103 199 199 211 213 l24 25 -67 64 c-37 34 -70 64 -73 65 -4 2 -131
-120 -282 -271z m-7193 -131 c53 -24 93 -68 111 -121 18 -54 5 -154 -26 -202
-15 -23 -16 -22 -184 145 l-169 168 53 17 c71 23 152 20 215 -7z m-113 -504
c-20 -20 -116 -40 -171 -36 -100 6 -167 47 -199 123 -28 67 -18 160 24 234
l16 28 170 -170 c105 -105 166 -173 160 -179z"/>
<path d="M7295 7799 c-26 -31 -29 -60 -10 -102 9 -21 55 -47 84 -47 29 0 79
47 83 78 12 90 -98 140 -157 71z"/>
<path d="M7708 7434 c-45 -24 -62 -79 -38 -124 32 -60 134 -57 162 5 35 77
-50 159 -124 119z"/>
</g>
</svg>
